
[img]http://img718.imageshack.us/img718/390/brids.png[/img]
[code]
General:
#######################################################################

Complete name                    : Bridesmaids 2011 BRRIP XVID -SCR0N.avi
Format                           : AVI
Format/Info                      : Audio Video Interleave
File size                        : 693 MiB
Duration                         : 2h 10mn
Overall bit rate                 : 744 Kbps

#######################################################################
Video:
#######################################################################

ID                               : 0
Format                           : MPEG-4 Visual
Format profile                   : Advanced Simple@L5
Format settings, BVOP            : 2
Format settings, QPel            : No
Format settings, GMC             : No warppoints
Format settings, Matrix          : Default (H.263)
Codec ID                         : XVID
Codec ID/Hint                    : XviD
Duration                         : 2h 10mn
Bit rate                         : 610 Kbps
Width                            : 720 pixels
Height                           : 304 pixels
Display aspect ratio             : 2.35:1
Frame rate                       : 23.976 fps
Color space                      : YUV
Chroma subsampling               : 4:2:0
Bit depth                        : 8 bits
Scan type                        : Progressive
Compression mode                 : Lossy
Bits/(Pixel*Frame)               : 0.116
Stream size                      : 568 MiB (82%)


#######################################################################
Audio 1:
#######################################################################

ID                               : 1
Format                           : MPEG Audio
Format version                   : Version 1
Format profile                   : Layer 3
Mode                             : Joint stereo
Codec ID                         : 55
Codec ID/Hint                    : MP3
Duration                         : 2h 10mn
Bit rate mode                    : Constant
Bit rate                         : 128 Kbps
Channel(s)                       : 2 channels
Sampling rate                    : 48.0 KHz
Compression mode                 : Lossy
Stream size                      : 119 MiB (17%)
Alignment                        : Aligned on interleaves
Interleave, duration             : 167 ms (4.00 video frames)
Interleave, preload duration     : 216 ms



#######################################################################
Cast:
#######################################################################

kristen Wiig as Annie 
Terry Crews as Boot Camp Instructor 
Maya Rudolph as Lillian 
Jessica St. Clair as Whitney 
Tom Yi as Jewelry Store Couple 
Elaine Kao as Jewelry Store Couple 
Michael Hitchcock as Don Cholodecki 
Kali Hawk as Kahlua 
Joe Nunez as Oscar the Security Guard 
Rebel Wilson as Brynn 


SOURCE
Video : Bridesmaids 720p BluRay x264-REFiNED
Audio : Bridesmaids 720p BluRay x264-REFiNED

IMDB : http://www.imdb.com/title/tt1478338/ 


SCR0N is looking for silver supplier,cammers,syncers,Audio and anymore stuff.....
If yall got anything to offer...holler us at scron@hushmail.com 
[/code]
Screens:
[img]http://img217.imageshack.us/img217/3748/63145417.jpg[/img]
[img]http://img851.imageshack.us/img851/5738/46729796.jpg[/img]
[img]http://img29.imageshack.us/img29/6692/94699496.jpg[/img]
[img]http://img819.imageshack.us/img819/9005/13504776.jpg[/img]
[img]http://img204.imageshack.us/img204/9678/70667294.jpg[/img]